<svg width="1000" height="200" viewBox="0 0 1000 200" xmlns="http://www.w3.org/2000/svg">
  <!-- Deep black background across entire canvas -->
  <rect width="1000" height="200" fill="#000000" />

  <!-- Right Side: Yellow Point Terminal with $500.00 screen + Argentine Cash Banknotes ($1000, $200) -->
  <g transform="translate(850, 10)">
    <!-- Yellow Terminal in background standing upright -->
    <g transform="translate(20, 0)">
      <!-- Main yellow casing -->
      <rect x="0" y="20" width="85" height="155" rx="12" fill="#FFE600" stroke="#E6CE00" stroke-width="2" />
      <!-- White Paper Receipt on top -->
      <rect x="10" y="2" width="65" height="24" rx="2" fill="#FFFFFF" stroke="#E5E7EB" stroke-width="1" />
      <ellipse cx="42" cy="10" rx="10" ry="4" fill="#E5E7EB" />
      <line x1="16" y1="16" x2="68" y2="16" stroke="#9CA3AF" stroke-width="1" stroke-dasharray="2,2" />
      <rect x="16" y="18" width="52" height="6" fill="#F3F4F6" />
      <text x="42" y="23" font-family="sans-serif" font-size="5" font-weight="bold" fill="#374151" text-anchor="middle">Total $500.00</text>

      <!-- Terminal Screen -->
      <rect x="8" y="36" width="69" height="128" rx="6" fill="#FFFFFF" stroke="#D1D5DB" stroke-width="1" />
      <line x1="8" y1="46" x2="77" y2="46" stroke="#FFE600" stroke-width="3" />
      <text x="14" y="54" font-family="sans-serif" font-size="5" fill="#6B7280">Importe</text>
      <!-- Terminal screen amount: $ 500,00 -->
      <text x="42" y="68" font-family="sans-serif" font-size="11" font-weight="900" fill="#1F2937" text-anchor="middle">$ 500,00</text>
      <!-- Keypad lines/grid -->
      <line x1="12" y1="78" x2="73" y2="78" stroke="#E5E7EB" stroke-width="1" />
      <text x="22" y="92" font-family="sans-serif" font-size="7" fill="#6B7280">1</text>
      <text x="42" y="92" font-family="sans-serif" font-size="7" fill="#6B7280">2</text>
      <text x="62" y="92" font-family="sans-serif" font-size="7" fill="#6B7280">3</text>
      <text x="22" y="106" font-family="sans-serif" font-size="7" fill="#6B7280">4</text>
      <text x="42" y="106" font-family="sans-serif" font-size="7" fill="#6B7280">5</text>
      <text x="62" y="106" font-family="sans-serif" font-size="7" fill="#6B7280">6</text>
    </g>

    <!-- Cash Banknotes ($1000 orange, $200 blue) fanning across bottom right -->
    <g transform="translate(-40, 60)">
      <!-- Blue $200 Bill (bottom angled) -->
      <g transform="rotate(-36, 120, 100)">
        <rect x="0" y="0" width="120" height="65" rx="3" fill="#BFDBFE" stroke="#60A5FA" stroke-width="1.5" />
        <rect x="8" y="8" width="35" height="48" rx="2" fill="#DBEAFE" />
        <text x="100" y="30" font-family="sans-serif" font-weight="900" font-size="18" fill="#1E40AF" text-anchor="end">200</text>
      </g>

      <!-- Light Blue $200 Bill (middle angled) -->
      <g transform="rotate(-25, 120, 100)">
        <rect x="10" y="10" width="120" height="65" rx="3" fill="#BAE6FD" stroke="#38BDF8" stroke-width="1.5" />
        <text x="110" y="38" font-family="sans-serif" font-weight="900" font-size="18" fill="#0369A1" text-anchor="end">200</text>
      </g>

      <!-- Orange $1000 Bill (top angled) -->
      <g transform="rotate(-12, 120, 100)">
        <rect x="20" y="20" width="130" height="70" rx="3" fill="#FED7AA" stroke="#FB923C" stroke-width="1.5" />
        <circle cx="50" cy="55" r="12" fill="#FDBA74" />
        <text x="135" y="52" font-family="sans-serif" font-weight="900" font-size="22" fill="#C2410C" text-anchor="end">1000</text>
        <text x="135" y="66" font-family="sans-serif" font-size="7" font-weight="bold" fill="#EA580C" text-anchor="end">REPÚBLICA</text>
      </g>

      <!-- Hand holding cash from bottom -->
      <g transform="translate(120, 85)">
        <path d="M0,45 C15,35 45,30 65,40 C75,45 80,65 80,85 L0,85 Z" fill="#E2A679" />
        <ellipse cx="25" cy="40" rx="14" ry="10" fill="#D49567" />
      </g>
    </g>
  </g>
</svg>