<svg width="1000" height="200" viewBox="0 0 1000 200" xmlns="http://www.w3.org/2000/svg">
  <!-- Deep black background across entire canvas -->
  <rect width="1000" height="200" fill="#000000" />

  <!-- Right Side: Physical QR Stand + Hand holding Smartphone -->
  <g transform="translate(815, 6)">
    <!-- Yellow QR Stand in background -->
    <g transform="translate(45, 10)">
      <rect x="0" y="0" width="118" height="175" rx="8" fill="#FFE600" stroke="#E6CE00" stroke-width="1.5" />
      
      <!-- Top MP Brand on Stand -->
      <ellipse cx="38" cy="22" rx="14" ry="10" fill="#002f6c" />
      <ellipse cx="38" cy="22" rx="12" ry="8" fill="#FFFFFF" />
      <path d="M32,22 C34,19 37,19 38,21 C39,19 42,19 44,22 C44,25 41,26 38,24 C35,26 32,25 32,22 Z" fill="#002f6c" />
      <text x="56" y="20" font-family="sans-serif" font-size="7" font-weight="bold" fill="#002f6c">mercado</text>
      <text x="56" y="27" font-family="sans-serif" font-size="7" font-weight="bold" fill="#002f6c">pago</text>

      <!-- QR Code on Stand -->
      <rect x="18" y="44" width="82" height="82" rx="4" fill="#FFFFFF" />
      <!-- QR Pattern Elements -->
      <rect x="24" y="50" width="22" height="22" fill="#000000" />
      <rect x="28" y="54" width="14" height="14" fill="#FFFFFF" />
      <rect x="31" y="57" width="8" height="8" fill="#000000" />

      <rect x="72" y="50" width="22" height="22" fill="#000000" />
      <rect x="76" y="54" width="14" height="14" fill="#FFFFFF" />
      <rect x="79" y="57" width="8" height="8" fill="#000000" />

      <rect x="24" y="98" width="22" height="22" fill="#000000" />
      <rect x="28" y="102" width="14" height="14" fill="#FFFFFF" />
      <rect x="31" y="105" width="8" height="8" fill="#000000" />

      <!-- QR random data clusters -->
      <rect x="52" y="52" width="8" height="8" fill="#000000" />
      <rect x="58" y="66" width="10" height="10" fill="#000000" />
      <rect x="50" y="80" width="18" height="18" fill="#000000" />
      <rect x="74" y="80" width="12" height="12" fill="#000000" />
      <rect x="54" y="104" width="14" height="14" fill="#000000" />
      <rect x="76" y="100" width="16" height="16" fill="#000000" />

      <!-- Bottom stand text -->
      <text x="59" y="140" font-family="sans-serif" font-size="8" font-weight="900" fill="#002f6c" text-anchor="middle">Escaneá</text>
      <text x="59" y="150" font-family="sans-serif" font-size="8" font-weight="900" fill="#002f6c" text-anchor="middle">y pagá</text>
    </g>

    <!-- Hand & Smartphone in Foreground (Held vertically, scanning) -->
    <g transform="translate(0, 32)">
      <!-- Smartphone Body -->
      <rect x="8" y="10" width="76" height="148" rx="12" fill="#111827" stroke="#374151" stroke-width="2" />
      <!-- Smartphone Screen -->
      <rect x="12" y="14" width="68" height="140" rx="8" fill="#FFFFFF" />

      <!-- Screen: Header with MP Logo -->
      <rect x="12" y="14" width="68" height="18" rx="6" fill="#009EE3" />
      <ellipse cx="22" cy="23" rx="6" ry="4" fill="#FFFFFF" />
      <text x="32" y="26" font-family="sans-serif" font-size="6" font-weight="bold" fill="#FFFFFF">mercado pago</text>

      <!-- Amount Header: $ 15.200 -->
      <text x="18" y="44" font-family="sans-serif" font-size="5" fill="#6B7280">PRECIO FINAL A PAGAR</text>
      <text x="18" y="55" font-family="sans-serif" font-size="10" font-weight="900" fill="#111827">$ 15.200</text>
      <!-- Green discount badge -->
      <rect x="56" y="46" width="20" height="9" rx="3" fill="#DCFCE7" />
      <text x="66" y="53" font-family="sans-serif" font-size="5.5" font-weight="bold" fill="#16A34A" text-anchor="middle">▼ 10%</text>

      <!-- Payment Method Card box -->
      <rect x="16" y="62" width="60" height="16" rx="3" fill="#1E293B" />
      <!-- Mastercard logo circles -->
      <circle cx="23" cy="70" r="3.5" fill="#EF4444" opacity="0.9" />
      <circle cx="27" cy="70" r="3.5" fill="#F59E0B" opacity="0.9" />
      <text x="34" y="72" font-family="sans-serif" font-size="5.5" fill="#FFFFFF">Crédito</text>

      <!-- Additional options on screen -->
      <rect x="16" y="82" width="60" height="8" rx="2" fill="#F3F4F6" />
      <rect x="16" y="93" width="60" height="8" rx="2" fill="#F3F4F6" />
      <rect x="16" y="104" width="60" height="8" rx="2" fill="#F3F4F6" />

      <!-- Bottom action bar with MP Blue circle -->
      <circle cx="24" cy="144" r="5" fill="#009EE3" />
      <rect x="34" y="141" width="38" height="6" rx="3" fill="#E5E7EB" />

      <!-- Human Hand holding phone on the right side with manicured nails -->
      <g transform="translate(58, 70)">
        <!-- Thumb and fingers holding the phone right edge -->
        <path d="M0,15 C8,10 18,12 24,18 C28,24 28,38 25,50 C22,65 24,80 28,95 L-5,95 Z" fill="#E2A679" />
        <!-- Fingernails -->
        <ellipse cx="6" cy="20" rx="3.5" ry="5.5" fill="#FCE7F3" stroke="#F472B6" stroke-width="0.5" />
        <ellipse cx="8" cy="40" rx="3.5" ry="5.5" fill="#FCE7F3" stroke="#F472B6" stroke-width="0.5" />
        <ellipse cx="9" cy="60" rx="3.5" ry="5.5" fill="#FCE7F3" stroke="#F472B6" stroke-width="0.5" />
      </g>
    </g>
  </g>
</svg>